<svg width="45" height="31" viewBox="0 0 45 31" fill="none" xmlns="http://www.w3.org/2000/svg">
<path id="Forma 1" d="M30.0964 26.3212H15.143C14.9428 27.585 14.2983 28.7357 13.3253 29.5667C12.3524 30.3976 11.1149 30.8541 9.83536 30.8541C8.55586 30.8541 7.31834 30.3976 6.34539 29.5667C5.37244 28.7357 4.72791 27.585 4.52772 26.3212H2.65624C2.17816 26.3181 1.72083 26.1255 1.38449 25.7858C1.04816 25.446 0.860277 24.9868 0.862077 24.5087V1.81345C0.86002 1.3352 1.04778 0.875671 1.38414 0.535685C1.7205 0.195698 2.178 0.00306626 2.65624 0H27.3428C27.821 0.00306616 28.2783 0.19567 28.6146 0.535685C28.9508 0.875699 29.1383 1.33529 29.136 1.81345V3.65403H36.0161C36.0937 3.6537 36.1711 3.66378 36.246 3.68398C38.4682 3.87722 39.5861 5.03653 40.7648 7.02877L44.2034 12.9166C44.2854 13.0564 44.3287 13.2155 44.329 13.3775V25.414C44.33 25.6532 44.236 25.8828 44.0677 26.0528C43.8994 26.2227 43.6706 26.319 43.4314 26.3203H40.7126C40.5124 27.584 39.8679 28.7348 38.8949 29.5657C37.922 30.3967 36.6845 30.8532 35.405 30.8532C34.1255 30.8532 32.8879 30.3967 31.915 29.5657C30.942 28.7348 30.2975 27.584 30.0973 26.3203L30.0964 26.3212ZM31.8142 25.414C31.8218 26.1222 32.0388 26.8122 32.4377 27.3973C32.8367 27.9824 33.3999 28.4364 34.0563 28.7022C34.7127 28.968 35.4331 29.0336 36.1268 28.8909C36.8205 28.7481 37.4564 28.4033 37.9545 27.9C38.4527 27.3966 38.7908 26.7571 38.9263 26.062C39.0618 25.3669 38.9886 24.6472 38.716 23.9935C38.4434 23.3399 37.9835 22.7817 37.3943 22.3888C36.805 21.996 36.1127 21.7862 35.4045 21.7859C34.4477 21.7921 33.5323 22.1777 32.8592 22.8578C32.1862 23.5379 31.8104 24.4572 31.8142 25.414ZM6.24558 25.414C6.25321 26.1222 6.47014 26.8122 6.8691 27.3973C7.26806 27.9824 7.83122 28.4364 8.48766 28.7022C9.1441 28.968 9.86449 29.0336 10.5582 28.8909C11.2518 28.7481 11.8878 28.4033 12.3859 27.9C12.8841 27.3966 13.2222 26.7571 13.3577 26.062C13.4932 25.3669 13.42 24.6472 13.1474 23.9935C12.8748 23.3399 12.4149 22.7817 11.8256 22.3888C11.2364 21.996 10.544 21.7862 9.83583 21.7859C8.87882 21.7918 7.96324 22.1772 7.28997 22.8573C6.6167 23.5375 6.24075 24.457 6.24461 25.414H6.24558ZM40.7107 24.5078H42.5329V19.0797H39.8894C39.771 19.0792 39.6538 19.0555 39.5446 19.0096C39.4353 18.9638 39.3362 18.8968 39.2528 18.8127C39.1694 18.7285 39.1035 18.6287 39.0587 18.519C39.014 18.4093 38.9912 18.2919 38.9919 18.1734V16.389C38.9916 15.6927 39.2578 15.0228 39.7358 14.5166H33.5727C33.498 14.5165 33.4237 14.507 33.3514 14.4885C32.6705 14.4278 32.0372 14.1139 31.5767 13.6087C31.1162 13.1034 30.862 12.4437 30.8645 11.7601V7.21913C30.8638 7.10062 30.8866 6.98305 30.9313 6.87333C30.9761 6.7636 31.042 6.6639 31.1254 6.57965C31.2087 6.49541 31.3078 6.42839 31.4171 6.38246C31.5263 6.33652 31.6435 6.31256 31.762 6.31193H38.0257C37.693 6.00404 37.2994 5.76921 36.8704 5.62292C36.4414 5.47664 35.9864 5.422 35.5349 5.46252H29.136V24.5038H30.0964C30.2965 23.24 30.9411 22.0892 31.9141 21.2583C32.887 20.4273 34.1245 19.9708 35.404 19.9708C36.6835 19.9708 37.921 20.4273 38.894 21.2583C39.8669 22.0892 40.5114 23.24 40.7116 24.5038L40.7107 24.5078ZM15.142 24.5078H27.3418V1.81251H2.65624V24.5078H4.52772C4.72791 23.244 5.37244 22.093 6.34539 21.262C7.31834 20.4311 8.55586 19.9746 9.83536 19.9746C11.1149 19.9746 12.3524 20.4311 13.3253 21.262C14.2983 22.093 14.9428 23.244 15.143 24.5078H15.142ZM40.7861 16.3918V17.2702H42.5329V15.4856H41.6836C41.4451 15.4871 41.2169 15.5831 41.0489 15.7523C40.8809 15.9216 40.7867 16.1505 40.787 16.389L40.7861 16.3918ZM32.6577 11.762C32.6566 12.0059 32.7524 12.2404 32.9239 12.4139C33.0954 12.5874 33.3287 12.6858 33.5727 12.6875C33.6344 12.6874 33.6959 12.6939 33.7562 12.7069H41.9928L39.3204 8.13128H32.6538L32.6577 11.762ZM32.7475 25.4159C32.7447 24.7081 33.0228 24.0281 33.5207 23.5251C34.0186 23.0221 34.6958 22.7371 35.4035 22.7328C35.6439 22.7328 35.8744 22.8284 36.0444 22.9984C36.2143 23.1683 36.3098 23.3987 36.3098 23.639C36.3098 23.8794 36.2143 24.1099 36.0444 24.2799C35.8744 24.4499 35.6439 24.5453 35.4035 24.5453C35.2312 24.5437 35.0624 24.5936 34.9184 24.6882C34.7743 24.7828 34.6617 24.918 34.5947 25.0767C34.5277 25.2355 34.5094 25.4107 34.542 25.5798C34.5747 25.749 34.6569 25.9047 34.7782 26.0271C34.8995 26.1495 35.0544 26.233 35.2233 26.2672C35.3922 26.3014 35.5674 26.2847 35.7267 26.2191C35.8861 26.1535 36.0224 26.0419 36.1182 25.8987C36.2141 25.7556 36.2653 25.5873 36.2653 25.415C36.2653 25.177 36.3599 24.9489 36.5281 24.7807C36.6963 24.6124 36.9245 24.5179 37.1624 24.5179C37.4003 24.5179 37.6285 24.6124 37.7968 24.7807C37.965 24.9489 38.0595 25.177 38.0595 25.415C38.0595 26.1196 37.7796 26.7955 37.2813 27.2937C36.783 27.792 36.1072 28.0719 35.4026 28.0719C34.6979 28.0719 34.0221 27.792 33.5238 27.2937C33.0255 26.7955 32.7456 26.1196 32.7456 25.415L32.7475 25.4159ZM7.17887 25.4159C7.17604 24.7081 7.45413 24.0281 7.95206 23.5251C8.44999 23.0221 9.12712 22.7371 9.83489 22.7328C10.0752 22.7328 10.3058 22.8284 10.4757 22.9984C10.6457 23.1683 10.7411 23.3987 10.7411 23.639C10.7411 23.8794 10.6457 24.1099 10.4757 24.2799C10.3058 24.4499 10.0752 24.5453 9.83489 24.5453C9.66259 24.5437 9.49369 24.5936 9.34968 24.6882C9.20567 24.7828 9.09303 24.918 9.02602 25.0767C8.95902 25.2355 8.94069 25.4107 8.97336 25.5798C9.00604 25.749 9.08824 25.9047 9.20954 26.0271C9.33083 26.1495 9.48576 26.233 9.65465 26.2672C9.82353 26.3014 9.99876 26.2847 10.1581 26.2191C10.3174 26.1535 10.4537 26.0419 10.5496 25.8987C10.6455 25.7556 10.6967 25.5873 10.6967 25.415C10.6967 25.177 10.7912 24.9489 10.9594 24.7807C11.1277 24.6124 11.3559 24.5179 11.5938 24.5179C11.8317 24.5179 12.0599 24.6124 12.2281 24.7807C12.3964 24.9489 12.4909 25.177 12.4909 25.415C12.4909 26.1196 12.211 26.7955 11.7127 27.2937C11.2144 27.792 10.5386 28.0719 9.83391 28.0719C9.12925 28.0719 8.45343 27.792 7.95516 27.2937C7.45688 26.7955 7.17696 26.1196 7.17696 25.415L7.17887 25.4159ZM5.38376 5.46842C5.1434 5.46842 4.91289 5.37301 4.74293 5.20305C4.57298 5.0331 4.47748 4.80252 4.47748 4.56217C4.47748 4.32181 4.57298 4.09124 4.74293 3.92128C4.91289 3.75132 5.1434 3.65591 5.38376 3.65591H24.6105C24.8508 3.65591 25.0814 3.75132 25.2513 3.92128C25.4213 4.09124 25.5167 4.32181 25.5167 4.56217C25.5167 4.80252 25.4213 5.0331 25.2513 5.20305C25.0814 5.37301 24.8508 5.46842 24.6105 5.46842H5.38376Z" fill="#F16D7F"/>
</svg>
