<svg width="40" height="39" viewBox="0 0 40 39" fill="none" xmlns="http://www.w3.org/2000/svg">
<path id="Forma 1" d="M20.0839 35.9725L16.7303 38.7743L14.5197 34.987L10.4232 36.4478L9.62898 32.1194L5.28801 32.076L5.99524 27.7282L1.9296 26.1822L4.06485 22.3506L0.766357 19.4858L4.06291 16.6192L1.92772 12.7882L5.9943 11.2425L5.28607 6.89947L9.62804 6.85702L10.4222 2.52861L14.5188 3.98847L16.7293 0.201172L20.0829 3.00296L23.4365 0.201172L25.6481 3.98941L29.7446 2.52861L30.5379 6.85796L34.8798 6.90136L34.1725 11.2444L38.2382 12.7904L36.1029 16.622L39.3995 19.4868L36.1029 22.3534L38.2372 26.1853L34.1706 27.731L34.8788 32.0731L30.5359 32.1165L29.7427 36.4459L25.6481 34.986L23.4365 38.7733L20.0839 35.9725ZM21.2491 34.5397L22.9505 35.9609L24.0722 34.0382L24.8374 32.7282L26.2558 33.2334L28.334 33.9755L28.7369 31.7792L29.0122 30.2769L30.5205 30.2616L32.7252 30.2413L32.3658 28.0363L32.1204 26.5292L33.5301 25.994L35.5918 25.2083L34.5097 23.2665L33.7697 21.938L34.9126 20.9457L36.588 19.4868L34.9136 18.0375L33.7706 17.0433L34.5107 15.7139L35.5938 13.7709L33.532 12.9873L32.1223 12.453L32.3687 10.9458L32.7281 8.74194L30.5233 8.71977L29.0161 8.70443L28.7407 7.20282L28.3389 5.00677L26.2596 5.74791L24.8413 6.25316L24.0751 4.94214L22.9525 3.01947L21.2501 4.44065L20.0858 5.41154L18.9216 4.44065L17.2202 3.01947L16.0985 4.94119L15.3333 6.25222L13.9139 5.74696L11.8367 5.00488L11.4328 7.20187L11.1575 8.70349L9.65027 8.71882L7.44644 8.74005L7.80586 10.9448L8.05124 12.4502L6.64161 12.9864L4.57884 13.77L5.66194 15.7129L6.40202 17.0414L5.25906 18.0356L3.58372 19.4927L5.25806 20.9485L6.40102 21.9428L5.66094 23.2712L4.57789 25.2132L6.63872 25.9959L8.04935 26.5321L7.80297 28.0384L7.44449 30.2451L9.64832 30.2672L11.1555 30.2828L11.4309 31.7851L11.8338 33.9802L13.913 33.2391L15.3323 32.7338L16.0975 34.0449L17.2202 35.9678L18.9216 34.5463L20.0858 33.5755L21.2491 34.5397ZM21.3631 22.4424C21.3631 19.6144 22.8751 18.0413 24.7051 18.0413C26.6432 18.0413 27.8935 19.5515 27.8935 22.2249C27.8935 25.1804 26.362 26.6469 24.594 26.6469C22.8751 26.6469 21.3824 25.2462 21.3631 22.4424ZM22.8326 22.3572C22.8104 24.1456 23.4916 25.505 24.6413 25.505C25.8751 25.505 26.4287 24.1668 26.4287 22.3166C26.4287 20.6113 25.9389 19.1891 24.6413 19.1891C23.4713 19.1852 22.8326 20.5901 22.8326 22.3563V22.3572ZM15.4463 26.6085L23.5766 12.3875H24.7679L16.6376 26.6085H15.4463ZM12.3401 16.6163C12.3401 13.8145 13.8502 12.2377 15.6811 12.2377C17.6134 12.2377 18.8946 13.7488 18.8946 16.4232C18.8946 19.3777 17.3622 20.8433 15.5748 20.8433C13.8521 20.8433 12.3604 19.4424 12.3401 16.6173V16.6163ZM13.8299 16.5524C13.7874 18.3408 14.4492 19.6993 15.6173 19.7012C16.8511 19.7012 17.4047 18.364 17.4047 16.5128C17.4047 14.8065 16.9148 13.3845 15.6173 13.3845C14.4492 13.3816 13.8299 14.7826 13.8299 16.5536V16.5524Z" fill="#F16D7F"/>
</svg>
